HIERARCHY
ROOT reference
{
  OFFSET 0 0 0
  CHANNELS 6 Xposition Yposition Zposition Zrotation Xrotation Yrotation
  JOINT Hips
  {
    OFFSET 368.823 89.7904 194.012
    CHANNELS 3 Zrotation Xrotation Yrotation
    JOINT RightUpLeg
    {
      OFFSET -9.24587 -1.53924 -0.0496539
      CHANNELS 3 Zrotation Xrotation Yrotation
      JOINT RightLeg
      {
        OFFSET 0.0288962 -41.8853 0.065208
        CHANNELS 3 Zrotation Xrotation Yrotation
        JOINT RightFoot
        {
          OFFSET -0.153961 -42.496 -0.469978
          CHANNELS 3 Zrotation Xrotation Yrotation
          End Site
          {
            OFFSET 0 -7.69 17.5
          }
        }
      }
    }
    JOINT LeftUpLeg
    {
      OFFSET 9.30368 -1.65799 0.0114032
      CHANNELS 3 Zrotation Xrotation Yrotation
      JOINT LeftLeg
      {
        OFFSET 0.0812002 -41.8405 -0.136291
        CHANNELS 3 Zrotation Xrotation Yrotation
        JOINT LeftFoot
        {
          OFFSET 0.408244 -41.1613 0.400562
          CHANNELS 3 Zrotation Xrotation Yrotation
          End Site
          {
            OFFSET 0 -7.69 17.5
          }
        }
      }
    }
    JOINT Spine
    {
      OFFSET 0.0091145 14.2923 0.0603898
      CHANNELS 3 Zrotation Xrotation Yrotation
      JOINT Spine1
      {
        OFFSET 0.0313032 9.72692 0.0269052
        CHANNELS 3 Zrotation Xrotation Yrotation
        JOINT Spine2
        {
          OFFSET 0.0416827 10.1254 -0.000588186
          CHANNELS 3 Zrotation Xrotation Yrotation
          JOINT Spine3
          {
            OFFSET 0.0353017 9.71596 0.00525809
            CHANNELS 3 Zrotation Xrotation Yrotation
            JOINT Neck
            {
              OFFSET 0.0870676 10.3793 0.0454457
              CHANNELS 3 Zrotation Xrotation Yrotation
              JOINT Head
              {
                OFFSET 0.0878806 9.48152 0.0233162
                CHANNELS 3 Zrotation Xrotation Yrotation
                End Site
                {
                  OFFSET 0 15.95 0
                }
              }
            }
            JOINT RightShoulder
            {
              OFFSET -3.16008 6.92912 0.0289115
              CHANNELS 3 Zrotation Xrotation Yrotation
              JOINT RightArm
              {
                OFFSET -12.7589 0.0216905 0.0632467
                CHANNELS 3 Zrotation Xrotation Yrotation
                JOINT RightForeArm
                {
                  OFFSET -26.506 -0.0577999 0.0567862
                  CHANNELS 3 Zrotation Xrotation Yrotation
                  JOINT RightHand
                  {
                    OFFSET -25.9836 -0.0526551 -0.00138994
                    CHANNELS 3 Zrotation Xrotation Yrotation
                    JOINT RightHandThumb1
                    {
                      OFFSET -2.48905 0.190105 3.12053
                      CHANNELS 3 Zrotation Xrotation Yrotation
                      JOINT RightHandThumb2
                      {
                        OFFSET -3.68274 0 0
                        CHANNELS 3 Zrotation Xrotation Yrotation
                        JOINT RightHandThumb3
                        {
                          OFFSET -2.55832 0 0
                          CHANNELS 3 Zrotation Xrotation Yrotation
                          End Site
                          {
                            OFFSET -2.194 0 0
                          }
                        }
                      }
                    }
                    JOINT RightInHandIndex
                    {
                      OFFSET -3.22368 0.508421 1.97842
                      CHANNELS 3 Zrotation Xrotation Yrotation
                      JOINT RightHandIndex1
                      {
                        OFFSET -5.21684 -0.091368 0.999158
                        CHANNELS 3 Zrotation Xrotation Yrotation
                        JOINT RightHandIndex2
                        {
                          OFFSET -3.61937 0 0
                          CHANNELS 3 Zrotation Xrotation Yrotation
                          JOINT RightHandIndex3
                          {
                            OFFSET -2.0521 0 0
                            CHANNELS 3 Zrotation Xrotation Yrotation
                            End Site
                            {
                              OFFSET -1.805 0 0
                            }
                          }
                        }
                      }
                    }
                    JOINT RightInHandMiddle
                    {
                      OFFSET -3.38211 0.517263 0.756737
                      CHANNELS 3 Zrotation Xrotation Yrotation
                      JOINT RightHandMiddle1
                      {
                        OFFSET -5.17411 -0.084 0.313895
                        CHANNELS 3 Zrotation Xrotation Yrotation
                        JOINT RightHandMiddle2
                        {
                          OFFSET -3.94947 0 0
                          CHANNELS 3 Zrotation Xrotation Yrotation
                          JOINT RightHandMiddle3
                          {
                            OFFSET -2.47579 0 0
                            CHANNELS 3 Zrotation Xrotation Yrotation
                            End Site
                            {
                              OFFSET -1.975 0 0
                            }
                          }
                        }
                      }
                    }
                    JOINT RightInHandRing
                    {
                      OFFSET -3.36516 0.537895 -0.128947
                      CHANNELS 3 Zrotation Xrotation Yrotation
                      JOINT RightHandRing1
                      {
                        OFFSET -4.63474 -0.022105 -0.478947
                        CHANNELS 3 Zrotation Xrotation Yrotation
                        JOINT RightHandRing2
                        {
                          OFFSET -3.44238 0 0
                          CHANNELS 3 Zrotation Xrotation Yrotation
                          JOINT RightHandRing3
                          {
                            OFFSET -2.3881 0 0
                            CHANNELS 3 Zrotation Xrotation Yrotation
                            End Site
                            {
                              OFFSET -1.857 0 0
                            }
                          }
                        }
                      }
                    }
                    JOINT RightInHandPinky
                    {
                      OFFSET -3.16105 0.469368 -1.20179
                      CHANNELS 3 Zrotation Xrotation Yrotation
                      JOINT RightHandPinky1
                      {
                        OFFSET -4.14105 -0.022105 -1.09053
                        CHANNELS 3 Zrotation Xrotation Yrotation
                        JOINT RightHandPinky2
                        {
                          OFFSET -2.75653 0 0
                          CHANNELS 3 Zrotation Xrotation Yrotation
                          JOINT RightHandPinky3
                          {
                            OFFSET -1.74189 0 0
                            CHANNELS 3 Zrotation Xrotation Yrotation
                            End Site
                            {
                              OFFSET -1.645 0 0
                            }
                          }
                        }
                      }
                    }
                  }
                }
              }
            }
            JOINT LeftShoulder
            {
              OFFSET 3.24363 6.91883 -0.0263005
              CHANNELS 3 Zrotation Xrotation Yrotation
              JOINT LeftArm
              {
                OFFSET 12.8387 -0.0254922 -0.065819
                CHANNELS 3 Zrotation Xrotation Yrotation
                JOINT LeftForeArm
                {
                  OFFSET 26.503 -0.0679028 -0.0690065
                  CHANNELS 3 Zrotation Xrotation Yrotation
                  JOINT LeftHand
                  {
                    OFFSET 25.9897 -0.0384179 -0.0536179
                    CHANNELS 3 Zrotation Xrotation Yrotation
                    JOINT LeftHandThumb1
                    {
                      OFFSET 2.48905 0.190105 3.12053
                      CHANNELS 3 Zrotation Xrotation Yrotation
                      JOINT LeftHandThumb2
                      {
                        OFFSET 3.68274 0 0
                        CHANNELS 3 Zrotation Xrotation Yrotation
                        JOINT LeftHandThumb3
                        {
                          OFFSET 2.55832 0 0
                          CHANNELS 3 Zrotation Xrotation Yrotation
                          End Site
                          {
                            OFFSET 2.194 0 0
                          }
                        }
                      }
                    }
                    JOINT LeftInHandIndex
                    {
                      OFFSET 3.22368 0.508421 1.97842
                      CHANNELS 3 Zrotation Xrotation Yrotation
                      JOINT LeftHandIndex1
                      {
                        OFFSET 5.21684 -0.091368 0.999158
                        CHANNELS 3 Zrotation Xrotation Yrotation
                        JOINT LeftHandIndex2
                        {
                          OFFSET 3.61937 0 0
                          CHANNELS 3 Zrotation Xrotation Yrotation
                          JOINT LeftHandIndex3
                          {
                            OFFSET 2.0521 0 0
                            CHANNELS 3 Zrotation Xrotation Yrotation
                            End Site
                            {
                              OFFSET 1.805 0 0
                            }
                          }
                        }
                      }
                    }
                    JOINT LeftInHandMiddle
                    {
                      OFFSET 3.38211 0.517263 0.756737
                      CHANNELS 3 Zrotation Xrotation Yrotation
                      JOINT LeftHandMiddle1
                      {
                        OFFSET 5.17411 -0.084 0.313895
                        CHANNELS 3 Zrotation Xrotation Yrotation
                        JOINT LeftHandMiddle2
                        {
                          OFFSET 3.94947 0 0
                          CHANNELS 3 Zrotation Xrotation Yrotation
                          JOINT LeftHandMiddle3
                          {
                            OFFSET 2.47579 0 0
                            CHANNELS 3 Zrotation Xrotation Yrotation
                            End Site
                            {
                              OFFSET 1.975 0 0
                            }
                          }
                        }
                      }
                    }
                    JOINT LeftInHandRing
                    {
                      OFFSET 3.36516 0.537895 -0.128947
                      CHANNELS 3 Zrotation Xrotation Yrotation
                      JOINT LeftHandRing1
                      {
                        OFFSET 4.63474 -0.022105 -0.478947
                        CHANNELS 3 Zrotation Xrotation Yrotation
                        JOINT LeftHandRing2
                        {
                          OFFSET 3.44238 0 0
                          CHANNELS 3 Zrotation Xrotation Yrotation
                          JOINT LeftHandRing3
                          {
                            OFFSET 2.3881 0 0
                            CHANNELS 3 Zrotation Xrotation Yrotation
                            End Site
                            {
                              OFFSET 1.857 0 0
                            }
                          }
                        }
                      }
                    }
                    JOINT LeftInHandPinky
                    {
                      OFFSET 3.16105 0.469368 -1.20179
                      CHANNELS 3 Zrotation Xrotation Yrotation
                      JOINT LeftHandPinky1
                      {
                        OFFSET 4.14105 -0.022105 -1.09053
                        CHANNELS 3 Zrotation Xrotation Yrotation
                        JOINT LeftHandPinky2
                        {
                          OFFSET 2.75653 0 0
                          CHANNELS 3 Zrotation Xrotation Yrotation
                          JOINT LeftHandPinky3
                          {
                            OFFSET 1.74189 0 0
                            CHANNELS 3 Zrotation Xrotation Yrotation
                            End Site
                            {
                              OFFSET 1.645 0 0
                            }
                          }
                        }
                      }
                    }
                  }
                }
              }
            }
          }
        }
      }
    }
  }
}
MOTION
Frames: 2
Frame Time: 0.00833333
1.050000000000000000e+03 0.000000000000000000e+00 0.000000000000000000e+00 0.000000000000000000e+00 0.000000000000000000e+00 0.000000000000000000e+00 2.795890277363178811e+01 -1.384203705877332213e+00 -1.288663884657432845e+02 2.705108837558413271e+01 -4.842352599905048294e+01 2.682597988012227930e+01 -9.400859339363654144e+00 1.835822958824747531e+01 -9.308751773544088337e-02 4.452927548658255574e+00 6.779976589942986465e+00 4.908054484358657277e+01 3.218726729413219800e+01 -2.624140797229440025e+01 2.749565971944638676e+01 -2.138613939635224170e+01 3.947726609486863225e+01 2.622319055946373823e+01 -4.306148386108928250e+00 -2.702518492920434667e+01 3.304023451189602056e+00 -1.070686540943514053e+01 3.624535197776546092e-01 3.781938823212698253e-01 -2.527489485666779334e+00 -2.452643047982772107e-02 -2.474159826687838404e-02 -4.211283961710376111e+00 -1.112646329083757379e-01 -6.828616380049545853e-02 -8.225112622669651374e-01 -4.499209183737436502e-01 2.201228513063737680e+00 -7.288971774702717177e-01 -3.651283694810501412e+00 2.505584255603613997e+01 -1.468410182717145673e+01 2.924240369460648914e-01 2.662203110431836350e+01 3.062777606463662483e+00 6.194943585917256357e-01 9.244592771104104045e+00 4.475457265603983359e+01 -4.995665360414533751e+01 7.818043919034870726e+00 5.060619530956839895e+01 -3.572870459822762257e+01 1.116775735689050606e+02 6.164464139252055830e+00 -2.311372321032317245e+01 -9.978789876715628893e+00 2.818400000000000105e+01 1.072940000000000005e+01 1.915919999999999845e+01 8.392889061709567252e-15 2.141624201934208362e-15 -1.000000000000000000e+01 1.693149247627656675e-14 3.256032477346938625e-15 -1.000000000000000000e+01 1.722504013448333744e-14 -1.990243001962656769e-15 1.777377323911966150e-15 1.998179999999999978e+01 8.718970000000000331e-01 2.396399999999999864e+00 2.400000000000000000e+01 1.468028270947959782e-15 2.751326711819685922e-14 2.000000000000000000e+01 7.104167653556401952e-15 4.636212657286803761e-14 1.722504013448333744e-14 -1.990243001962656769e-15 1.777377323911966150e-15 2.000000000000000000e+01 -4.138393806118026417e-15 1.706404100626953842e-14 2.400000000000000000e+01 6.708473447832323134e-15 3.441983466920680962e-14 2.000000000000000000e+01 -3.621624547872092513e-15 2.248756863332374052e-14 1.722504013448333744e-14 -1.990243001962656769e-15 1.777377323911966150e-15 1.997479999999999833e+01 -1.025649999999999951e+00 -2.819380000000000219e+00 2.400000000000000000e+01 9.617069918282010744e-15 1.566903056839167081e-14 2.000000000000000000e+01 1.441063960286371998e-14 4.199829195568141171e-14 1.722504013448333744e-14 -1.990243001962656769e-15 1.777377323911966150e-15 1.978150000000000119e+01 -3.009479999999999933e+00 -8.305149999999999366e+00 2.400000000000000000e+01 -2.414463361062512787e-15 1.108018400942003438e-14 2.000000000000000000e+01 1.585864260357061440e-14 3.627444337304135501e-14 2.545598606345517823e+00 -1.524168864071068974e+01 -4.592656659989375356e+01 -5.717129372141272370e+00 3.422856679746227826e+01 -1.119938362540056431e+02 4.511961913922063161e+01 -2.338205471442706340e+01 3.635381753670472449e-01 -2.311241736662897850e+01 -1.828312628193172173e+01 4.068743758812249922e+00 -2.818400000000000105e+01 1.072940000000000005e+01 -1.915919999999999845e+01 -9.777425336517354283e-15 -9.655190952207527490e-15 1.000000000000000000e+01 8.516488950975455558e-15 -6.232315789947373746e-15 1.000000000000000000e+01 -4.988156557556751848e-15 -7.045865873843761245e-15 -7.386213577564761848e-15 -1.998179999999999978e+01 8.718970000000000331e-01 -2.396399999999999864e+00 -2.400000000000000000e+01 -3.354499090096509780e-15 -8.623544414022316259e-15 -2.000000000000000000e+01 -3.918951453455680181e-16 5.598446975453791287e-15 -4.988156557556751848e-15 -7.045865873843761245e-15 -7.386213577564761848e-15 -2.000000000000000000e+01 -1.075950999531815744e-14 -2.485102368188144331e-15 -2.400000000000000000e+01 -4.255755431238515948e-15 -2.348975727035140973e-15 -2.000000000000000000e+01 1.072618980347008128e-15 -1.205291888320649991e-14 -4.988156557556751848e-15 -7.045865873843761245e-15 -7.386213577564761848e-15 -1.997479999999999833e+01 -1.025649999999999951e+00 2.819380000000000219e+00 -2.400000000000000000e+01 2.887052286921681956e-15 -8.533604705713254508e-15 -2.000000000000000000e+01 -4.236160592956021638e-15 5.188128100381820218e-15 -4.988156557556751848e-15 -7.045865873843761245e-15 -7.386213577564761848e-15 -1.978150000000000119e+01 -3.009479999999999933e+00 8.305149999999999366e+00 -2.400000000000000000e+01 -3.435362563562744938e-16 -3.618001946145527467e-16 -2.000000000000000000e+01 6.013605446781487287e-15 -6.333666928034903299e-15
1.050000000000000000e+03 0.000000000000000000e+00 0.000000000000000000e+00 0.000000000000000000e+00 0.000000000000000000e+00 0.000000000000000000e+00 2.800939104915424949e+01 -1.354319301535646725e+00 -1.290672501702113095e+02 2.705216719986288254e+01 -4.854804461835045970e+01 2.679891902379677049e+01 -9.400893452344552870e+00 1.842312576227662646e+01 -1.001631351094838251e-01 4.511493715190415976e+00 6.670282849123864821e+00 4.905205378489367263e+01 3.222345601414623673e+01 -2.631975898928068958e+01 2.750741301292577035e+01 -2.139966631580112377e+01 3.953010064529715351e+01 2.626784933824056623e+01 -4.296656145119426284e+00 -2.702611249625615386e+01 3.412976364432889653e+00 -1.068051215088623351e+01 3.974809588284999862e-01 2.212820103356420987e-01 -2.520238626229752477e+00 -1.311620441877203724e-02 -6.397788662738790322e-02 -4.200037591087800948e+00 -9.129026224432068570e-02 -1.253331898436815806e-01 -8.242146821450307970e-01 -4.476926882572629385e-01 2.209386830452845007e+00 -7.379723849808730307e-01 -3.637122681147754832e+00 2.519157536641177231e+01 -1.470663615288228243e+01 2.905012609500938758e-01 2.670750644696452269e+01 3.095682895932191592e+00 6.166743640805174564e-01 9.171676699586315706e+00 4.486807524009999781e+01 -5.005561850573602101e+01 7.648139687103927997e+00 5.066742372002610040e+01 -3.564762979933681208e+01 1.116518406356255468e+02 6.117628748681868345e+00 -2.323502533428227679e+01 -9.906195309030097818e+00 2.818400000000000105e+01 1.072940000000000005e+01 1.915919999999999845e+01 8.390872416087818055e-15 2.145414311578857278e-15 -1.000000000000000000e+01 1.692040231486621527e-14 3.261600378761080062e-15 -1.000000000000000000e+01 1.723480150153967944e-14 -1.975872764248271757e-15 1.772462043179660112e-15 1.998179999999999978e+01 8.718970000000000331e-01 2.396399999999999864e+00 2.400000000000000000e+01 1.462091213345337073e-15 2.751230028226682981e-14 2.000000000000000000e+01 7.112840488719185454e-15 4.638147830324205027e-14 1.723480150153967944e-14 -1.975872764248271757e-15 1.772462043179660112e-15 2.000000000000000000e+01 -4.136401661057711427e-15 1.707651433482505144e-14 2.400000000000000000e+01 6.723207634812467525e-15 3.439445318172822585e-14 2.000000000000000000e+01 -3.611000239477863677e-15 2.249089210246221566e-14 1.723480150153967944e-14 -1.975872764248271757e-15 1.772462043179660112e-15 1.997479999999999833e+01 -1.025649999999999951e+00 -2.819380000000000219e+00 2.400000000000000000e+01 9.621592989170823246e-15 1.565476857826454193e-14 2.000000000000000000e+01 1.441606121994419833e-14 4.201241018781111827e-14 1.723480150153967944e-14 -1.975872764248271757e-15 1.772462043179660112e-15 1.978150000000000119e+01 -3.009479999999999933e+00 -8.305149999999999366e+00 2.400000000000000000e+01 -2.415284125308316937e-15 1.109089938141684363e-14 2.000000000000000000e+01 1.586705870036379953e-14 3.626896947408328668e-14 2.598611111556306419e+00 -1.529424839820281967e+01 -4.598293074172311634e+01 -5.686722255996368602e+00 3.435781037492496637e+01 -1.120975432732031436e+02 4.509315868583457387e+01 -2.332096700388230204e+01 6.004695925472631757e-01 -2.316414619906877093e+01 -1.830891105406429631e+01 4.078246918533780629e+00 -2.818400000000000105e+01 1.072940000000000005e+01 -1.915919999999999845e+01 -9.769748831695604508e-15 -9.649366426398732329e-15 1.000000000000000000e+01 8.511108487865866828e-15 -6.231095116829187704e-15 1.000000000000000000e+01 -4.985310011980827114e-15 -7.029153769306072543e-15 -7.384954089670193307e-15 -1.998179999999999978e+01 8.718970000000000331e-01 -2.396399999999999864e+00 -2.400000000000000000e+01 -3.346850652722333961e-15 -8.626807073158819145e-15 -2.000000000000000000e+01 -3.760458812730787360e-16 5.595794435346544375e-15 -4.985310011980827114e-15 -7.029153769306072543e-15 -7.384954089670193307e-15 -2.000000000000000000e+01 -1.076814272875745669e-14 -2.475080971718318716e-15 -2.400000000000000000e+01 -4.255775151582303502e-15 -2.351454708998498797e-15 -2.000000000000000000e+01 1.076193529266322080e-15 -1.202560027812390926e-14 -4.985310011980827114e-15 -7.029153769306072543e-15 -7.384954089670193307e-15 -1.997479999999999833e+01 -1.025649999999999951e+00 2.819380000000000219e+00 -2.400000000000000000e+01 2.888190114375296788e-15 -8.541071032184454037e-15 -2.000000000000000000e+01 -4.237836411830241024e-15 5.177481354136985798e-15 -4.985310011980827114e-15 -7.029153769306072543e-15 -7.384954089670193307e-15 -1.978150000000000119e+01 -3.009479999999999933e+00 8.305149999999999366e+00 -2.400000000000000000e+01 -3.609205791209682993e-16 -3.555133905547908009e-16 -2.000000000000000000e+01 6.007136566192822231e-15 -6.335326698191363755e-15
